<svg xmlns="http://www.w3.org/2000/svg" width="32" height="32" viewBox="0 0 32 32">
  <rect width="32" height="32" rx="6.4" fill="#1a1a2e"/>
  <g transform="translate(0, 0) scale(0.32)">
    <!-- Outer glow -->
    <circle cx="50" cy="52" r="32" fill="#0ea5e9" opacity="0.15"/>
    <!-- Snowflake / cryo symbol -->
    <g stroke="#38bdf8" stroke-width="3" stroke-linecap="round" fill="none" opacity="0.9">
      <!-- Vertical line -->
      <line x1="50" y1="22" x2="50" y2="78"/>
      <!-- Diagonal lines -->
      <line x1="25.8" y1="36" x2="74.2" y2="64"/>
      <line x1="25.8" y1="64" x2="74.2" y2="36"/>
      <!-- Branch tips -->
      <line x1="50" y1="22" x2="44" y2="28"/>
      <line x1="50" y1="22" x2="56" y2="28"/>
      <line x1="50" y1="78" x2="44" y2="72"/>
      <line x1="50" y1="78" x2="56" y2="72"/>
      <line x1="25.8" y1="36" x2="27" y2="44"/>
      <line x1="25.8" y1="36" x2="33" y2="34"/>
      <line x1="74.2" y1="64" x2="73" y2="56"/>
      <line x1="74.2" y1="64" x2="67" y2="66"/>
      <line x1="25.8" y1="64" x2="27" y2="56"/>
      <line x1="25.8" y1="64" x2="33" y2="66"/>
      <line x1="74.2" y1="36" x2="73" y2="44"/>
      <line x1="74.2" y1="36" x2="67" y2="34"/>
    </g>
    <!-- Center dot -->
    <circle cx="50" cy="50" r="4" fill="#38bdf8"/>
    <!-- "CC" text -->
    <text x="50" y="95" text-anchor="middle" font-family="system-ui, -apple-system, sans-serif" font-size="11" font-weight="700" fill="#94a3b8" letter-spacing="2">CC</text>
  </g>
</svg>